<?xml version="1.0" standalone="no"?><!DOCTYPE svg PUBLIC "-//W3C//DTD SVG 1.1//EN" "http://www.w3.org/Graphics/SVG/1.1/DTD/svg11.dtd"><svg class="icon" width="200px" height="200.00px" viewBox="0 0 1024 1024" version="1.1" xmlns="http://www.w3.org/2000/svg"><path d="M512 0C229.229714 0 0 229.229714 0 512s229.229714 512 512 512 512-229.229714 512-512S794.770286 0 512 0z m-16.822857 259.525486a14.628571 14.628571 0 1 1 29.257143 0v226.9184a14.628571 14.628571 0 0 1-29.257143 0z m245.950171 367.696457a248.685714 248.685714 0 1 1-387.986285-288.182857 14.628571 14.628571 0 1 1 18.702628 22.498743A219.428571 219.428571 0 1 0 651.849143 361.325714a14.628571 14.628571 0 1 1 18.658743-22.535314 248.927086 248.927086 0 0 1 70.626743 288.438857z" fill="#8a8a8a" /><path d="M670.507886 338.783086A14.628571 14.628571 0 1 0 651.849143 361.325714a219.428571 219.428571 0 1 1-279.998172 0.248686 14.628571 14.628571 0 1 0-18.702628-22.498743 248.685714 248.685714 0 1 0 317.359543-0.285257z" fill="#d81e06" /><path d="M509.805714 501.072457a14.628571 14.628571 0 0 0 14.628572-14.628571V259.525486a14.628571 14.628571 0 1 0-29.257143 0v226.9184a14.628571 14.628571 0 0 0 14.628571 14.628571z" fill="#2c2c2c" /></svg>